<svg xmlns="http://www.w3.org/2000/svg" width="48" height="48" viewBox="0 0 24 24" fill="none" stroke="#3b82f6" stroke-width="2" stroke-linecap="round" stroke-linejoin="round">
  <path d="M12 11c-1.1 0-2-.9-2-2V5c0-1.1.9-2 2-2s2 .9 2 2v4c0 1.1-.9 2-2 2zm0 2c1.1 0 2 .9 2 2v4c0 1.1-.9 2-2 2s-2-.9-2-2v-4c0-1.1.9-2 2-2zm6-2c-1.1 0-2-.9-2-2V5c0-1.1.9-2 2-2s2 .9 2 2v4c0 1.1-.9 2-2 2zm0 2c1.1 0 2 .9 2 2v4c0 1.1-.9 2-2 2s-2-.9-2-2v-4c0-1.1.9-2 2-2zM6 11c-1.1 0-2-.9-2-2V5c0-1.1.9-2 2-2s2 .9 2 2v4c0 1.1-.9 2-2 2zm0 2c1.1 0 2 .9 2 2v4c0 1.1-.9 2-2 2s-2-.9-2-2v-4c0-1.1.9-2 2-2z"></path>
</svg>
